<svg xmlns="http://www.w3.org/2000/svg" viewBox="0 0 280 680" font-family="'Inter', 'Helvetica Neue', sans-serif">

  <defs>
    <filter id="shadow" x="-20%" y="-20%" width="140%" height="140%">
      <feGaussianBlur in="SourceAlpha" stdDeviation="3"/>
      <feOffset dx="2" dy="3"/>
      <feComponentTransfer><feFuncA type="linear" slope="0.3"/></feComponentTransfer>
      <feMerge><feMergeNode/><feMergeNode in="SourceGraphic"/></feMerge>
    </filter>

    <linearGradient id="body-red" x1="0%" y1="0%" x2="100%" y2="0%">
      <stop offset="0%" stop-color="#9F1515"/>
      <stop offset="50%" stop-color="#C01E1E"/>
      <stop offset="100%" stop-color="#9F1515"/>
    </linearGradient>

    <linearGradient id="cab-red" x1="0%" y1="0%" x2="100%" y2="0%">
      <stop offset="0%" stop-color="#AE1A1A"/>
      <stop offset="50%" stop-color="#CE2424"/>
      <stop offset="100%" stop-color="#AE1A1A"/>
    </linearGradient>

    <linearGradient id="pedestal-red" x1="0%" y1="0%" x2="100%" y2="0%">
      <stop offset="0%" stop-color="#7B0C0C"/>
      <stop offset="50%" stop-color="#A81818"/>
      <stop offset="100%" stop-color="#7B0C0C"/>
    </linearGradient>

    <pattern id="chequer-pattern" x="0" y="0" width="6" height="6" patternUnits="userSpaceOnUse">
      <rect width="6" height="6" fill="#8A8A82"/>
      <polygon points="3,1 5,3 3,5 1,3" fill="#6A6A62" opacity="0.5"/>
      <polygon points="3,0.5 4.5,3 3,5.5 1.5,3" fill="#A8A8A0" opacity="0.3"/>
    </pattern>

    <pattern id="chequer-small" x="0" y="0" width="4" height="4" patternUnits="userSpaceOnUse">
      <rect width="4" height="4" fill="#7A7A72"/>
      <polygon points="2,0.5 3.5,2 2,3.5 0.5,2" fill="#5A5A52" opacity="0.6"/>
    </pattern>

    <linearGradient id="boom-metal" x1="0%" y1="0%" x2="100%" y2="0%">
      <stop offset="0%" stop-color="#6A6A5E"/>
      <stop offset="50%" stop-color="#B8B6A8"/>
      <stop offset="100%" stop-color="#6A6A5E"/>
    </linearGradient>

    <linearGradient id="rail-metal" x1="0%" y1="0%" x2="100%" y2="0%">
      <stop offset="0%" stop-color="#5A5A4E"/>
      <stop offset="50%" stop-color="#A8A6A0"/>
      <stop offset="100%" stop-color="#5A5A4E"/>
    </linearGradient>
  </defs>

  <rect width="280" height="680" fill="none"/>

  <g transform="translate(140, 360)" filter="url(#shadow)">

    <g fill="#0A0A0A">
      <rect x="-86" y="-240" width="6" height="24" rx="1.5"/>
      <rect x="80" y="-240" width="6" height="24" rx="1.5"/>
      <rect x="-86" y="60" width="6" height="34" rx="1.5"/>
      <rect x="80" y="60" width="6" height="34" rx="1.5"/>
      <rect x="-86" y="100" width="6" height="34" rx="1.5"/>
      <rect x="80" y="100" width="6" height="34" rx="1.5"/>
    </g>

    <rect x="-76" y="-288" width="152" height="112" rx="4" fill="url(#cab-red)" stroke="#5A0A0A" stroke-width="0.8"/>

    <path d="M -76 -288 Q -76 -292 -70 -292 L 70 -292 Q 76 -292 76 -288 L 76 -273 L -76 -273 Z"
          fill="#3A3A3A" stroke="#1A1A1A" stroke-width="0.6"/>

    <g>
      <rect x="-72" y="-273" width="144" height="18" fill="#9F1515"/>
      <g fill="#FFFFFF">
        <polygon points="-72,-255 -62,-273 -52,-273 -62,-255"/>
        <polygon points="-52,-255 -42,-273 -32,-273 -42,-255"/>
        <polygon points="-32,-255 -22,-273 -12,-273 -22,-255"/>
        <polygon points="-12,-255 -2,-273 8,-273 -2,-255"/>
        <polygon points="8,-255 18,-273 28,-273 18,-255"/>
        <polygon points="28,-255 38,-273 48,-273 38,-255"/>
        <polygon points="48,-255 58,-273 68,-273 58,-255"/>
      </g>
    </g>

    <rect x="-68" y="-291" width="12" height="5" rx="1" fill="#F8F0D8" stroke="#8B8470" stroke-width="0.3"/>
    <rect x="56" y="-291" width="12" height="5" rx="1" fill="#F8F0D8" stroke="#8B8470" stroke-width="0.3"/>

    <rect x="-16" y="-291" width="32" height="6" fill="#1A1A1A"/>

    <path d="M -72 -255 L -62 -216 L 62 -216 L 72 -255 Z" fill="#1A2535" stroke="#0A1520" stroke-width="0.6"/>
    <path d="M -64 -250 L -56 -220 L 0 -220 L 0 -250 Z" fill="#4A6A8A" opacity="0.4"/>

    <rect x="-72" y="-216" width="144" height="40" fill="url(#cab-red)" stroke="#5A0A0A" stroke-width="0.5"/>

    <g>
      <rect x="-58" y="-212" width="116" height="14" rx="2" fill="#1A1A2A" stroke="#000000" stroke-width="0.6"/>
      <rect x="-55" y="-210" width="20" height="6" rx="1" fill="#4A6AFF" opacity="0.75"/>
      <rect x="-33" y="-210" width="20" height="6" rx="1" fill="#4A6AFF" opacity="0.75"/>
      <rect x="-10" y="-210" width="8" height="6" rx="0.5" fill="#D4A020" opacity="0.75"/>
      <rect x="2" y="-210" width="8" height="6" rx="0.5" fill="#D4A020" opacity="0.75"/>
      <rect x="13" y="-210" width="20" height="6" rx="1" fill="#4A6AFF" opacity="0.75"/>
      <rect x="35" y="-210" width="20" height="6" rx="1" fill="#4A6AFF" opacity="0.75"/>
      <rect x="-56" y="-211" width="114" height="1" fill="#5A6A8A" opacity="0.5"/>
    </g>

    <rect x="-88" y="-258" width="10" height="14" rx="1.5" fill="#2A0A0A"/>
    <rect x="78" y="-258" width="10" height="14" rx="1.5" fill="#2A0A0A"/>

    <rect x="-76" y="-212" width="4" height="30" fill="#2A3A4A"/>
    <rect x="72" y="-212" width="4" height="30" fill="#2A3A4A"/>

    <rect x="-76" y="-182" width="4" height="4" fill="#4A0A0A"/>
    <rect x="72" y="-182" width="4" height="4" fill="#4A0A0A"/>

    <line x1="-76" y1="-176" x2="76" y2="-176" stroke="#6A0A0A" stroke-width="0.5"/>

    <rect x="-80" y="-176" width="160" height="330" rx="3" fill="url(#body-red)" stroke="#5A0A0A" stroke-width="0.8"/>

    <rect x="-74" y="-172" width="148" height="320" rx="2" fill="url(#chequer-pattern)" stroke="#4A4A42" stroke-width="0.8"/>
    <rect x="-74" y="-172" width="148" height="320" rx="2" fill="none" stroke="#1A1A1A" stroke-width="1.2"/>

    <g>
      <rect x="-74" y="-166" width="24" height="75" fill="#000000" opacity="0.2" transform="translate(1, 1)"/>
      <rect x="-74" y="-168" width="24" height="75" rx="1.5" fill="url(#body-red)" stroke="#5A0A0A" stroke-width="0.8"/>
      <rect x="-72" y="-166" width="20" height="2" fill="#D42828" opacity="0.6"/>
      <rect x="-74" y="-168" width="2" height="75" fill="#5A0A0A" opacity="0.4"/>
      <line x1="-62" y1="-168" x2="-62" y2="-93" stroke="#4A0606" stroke-width="0.4" stroke-dasharray="2,3" opacity="0.4"/>

      <rect x="50" y="-166" width="24" height="75" fill="#000000" opacity="0.2" transform="translate(1, 1)"/>
      <rect x="50" y="-168" width="24" height="75" rx="1.5" fill="url(#body-red)" stroke="#5A0A0A" stroke-width="0.8"/>
      <rect x="52" y="-166" width="20" height="2" fill="#D42828" opacity="0.6"/>
      <rect x="50" y="-168" width="2" height="75" fill="#5A0A0A" opacity="0.4"/>
      <line x1="62" y1="-168" x2="62" y2="-93" stroke="#4A0606" stroke-width="0.4" stroke-dasharray="2,3" opacity="0.4"/>
    </g>

    <g>
      <rect x="-47" y="-7" width="94" height="94" fill="#000000" opacity="0.25"/>
      <rect x="-48" y="-8" width="94" height="94" rx="2" fill="url(#pedestal-red)" stroke="#4A0606" stroke-width="1.2"/>
      <rect x="-46" y="-6" width="90" height="2" fill="#C82020" opacity="0.6"/>
      <rect x="-48" y="-8" width="2" height="94" fill="#5A0A0A" opacity="0.6"/>
      <rect x="-42" y="-2" width="82" height="82" rx="1" fill="none" stroke="#6A0A0A" stroke-width="0.5" opacity="0.5"/>
      <rect x="-16" y="26" width="40" height="40" rx="1" fill="#8B1010" stroke="#5A0A0A" stroke-width="0.8"/>

      <g stroke="#4A0606" stroke-width="0.4" opacity="0.7">
        <line x1="-16" y1="46" x2="-10" y2="46"/>
        <line x1="18" y1="46" x2="24" y2="46"/>
        <line x1="4" y1="26" x2="4" y2="32"/>
        <line x1="4" y1="60" x2="4" y2="66"/>
      </g>

      <circle cx="4" cy="46" r="4" fill="#4A0606" stroke="#2A0404" stroke-width="0.4"/>
      <circle cx="4" cy="46" r="2" fill="#6A0A0A"/>
    </g>

    <g>
      <rect x="30" y="-4" width="30" height="44" rx="3" fill="url(#pedestal-red)" stroke="#4A0606" stroke-width="0.8"/>
      <rect x="32" y="-2" width="26" height="40" rx="2" fill="#A81818" stroke="#5A0A0A" stroke-width="0.4"/>
      <rect x="36" y="8" width="18" height="24" rx="2" fill="#2A2A2A" stroke="#1A1A1A" stroke-width="0.4"/>
      <rect x="36" y="8" width="18" height="6" fill="#3A3A3A"/>
      <rect x="37" y="16" width="16" height="15" fill="#1A1A1A"/>
      <circle cx="45" cy="34" r="2" fill="#4A4A42" stroke="#1A1A1A" stroke-width="0.3"/>
      <circle cx="45" cy="34" r="1" fill="#6A6A62"/>
    </g>

    <g>
      <rect x="-18" y="-310" width="4" height="458" fill="url(#rail-metal)" stroke="#3A3A30" stroke-width="0.4"/>
      <rect x="14" y="-310" width="4" height="458" fill="url(#rail-metal)" stroke="#3A3A30" stroke-width="0.4"/>

      <g fill="url(#boom-metal)" stroke="#3A3A30" stroke-width="0.2">
        <rect x="-14" y="-305" width="28" height="2.5"/>
        <rect x="-14" y="-295" width="28" height="2.5"/>
        <rect x="-14" y="-285" width="28" height="2.5"/>
        <rect x="-14" y="-275" width="28" height="2.5"/>
        <rect x="-14" y="-265" width="28" height="2.5"/>
        <rect x="-14" y="-255" width="28" height="2.5"/>
        <rect x="-14" y="-245" width="28" height="2.5"/>
        <rect x="-14" y="-235" width="28" height="2.5"/>
        <rect x="-14" y="-225" width="28" height="2.5"/>
        <rect x="-14" y="-215" width="28" height="2.5"/>
        <rect x="-14" y="-205" width="28" height="2.5"/>
        <rect x="-14" y="-195" width="28" height="2.5"/>
        <rect x="-14" y="-185" width="28" height="2.5"/>
        <rect x="-14" y="-175" width="28" height="2.5"/>
        <rect x="-14" y="-165" width="28" height="2.5"/>
        <rect x="-14" y="-155" width="28" height="2.5"/>
        <rect x="-14" y="-145" width="28" height="2.5"/>
        <rect x="-14" y="-135" width="28" height="2.5"/>
        <rect x="-14" y="-125" width="28" height="2.5"/>
        <rect x="-14" y="-115" width="28" height="2.5"/>
        <rect x="-14" y="-105" width="28" height="2.5"/>
        <rect x="-14" y="-95" width="28" height="2.5"/>
        <rect x="-14" y="-85" width="28" height="2.5"/>
        <rect x="-14" y="-75" width="28" height="2.5"/>
        <rect x="-14" y="-65" width="28" height="2.5"/>
        <rect x="-14" y="-55" width="28" height="2.5"/>
        <rect x="-14" y="-45" width="28" height="2.5"/>
        <rect x="-14" y="-35" width="28" height="2.5"/>
        <rect x="-14" y="-25" width="28" height="2.5"/>
        <rect x="-14" y="-15" width="28" height="2.5"/>
        <rect x="-14" y="-5" width="28" height="2.5"/>
        <rect x="-14" y="5" width="28" height="2.5"/>
        <rect x="-14" y="15" width="28" height="2.5"/>
        <rect x="-14" y="25" width="28" height="2.5"/>
        <rect x="-14" y="35" width="28" height="2.5"/>
        <rect x="-14" y="90" width="28" height="2.5"/>
        <rect x="-14" y="100" width="28" height="2.5"/>
        <rect x="-14" y="110" width="28" height="2.5"/>
        <rect x="-14" y="120" width="28" height="2.5"/>
        <rect x="-14" y="130" width="28" height="2.5"/>
        <rect x="-14" y="140" width="28" height="2.5"/>
      </g>

      <rect x="-22" y="144" width="44" height="5" fill="#3A3A2A" stroke="#1A1A10" stroke-width="0.3"/>
      <rect x="-11" y="-290" width="22" height="335" fill="none" stroke="#6A6A5E" stroke-width="0.5" opacity="0.6"/>

      <g opacity="0.15">
        <rect x="-19" y="-280" width="2" height="104" fill="#000000"/>
        <rect x="17" y="-280" width="2" height="104" fill="#000000"/>
      </g>
      <g opacity="0.2">
        <rect x="-19" y="-310" width="2" height="30" fill="#000000"/>
        <rect x="17" y="-310" width="2" height="30" fill="#000000"/>
      </g>
    </g>

    <g transform="translate(0, -336)">
      <rect x="-52" y="-24" width="104" height="52" fill="#000000" opacity="0.25"/>
      <rect x="-52" y="-26" width="104" height="52" rx="3" fill="#6A6A5C" stroke="#1A1A0A" stroke-width="1.5"/>

      <g>
        <rect x="-52" y="-26" width="104" height="4" fill="#F5D800"/>
        <rect x="-52" y="22" width="104" height="4" fill="#F5D800"/>
        <g fill="#1A1A0A">
          <polygon points="-50,-26 -43,-22 -36,-26"/>
          <polygon points="-36,-26 -29,-22 -22,-26"/>
          <polygon points="-22,-26 -15,-22 -8,-26"/>
          <polygon points="-8,-26 -1,-22 6,-26"/>
          <polygon points="6,-26 13,-22 20,-26"/>
          <polygon points="20,-26 27,-22 34,-26"/>
          <polygon points="34,-26 41,-22 48,-26"/>
          <polygon points="48,-26 50,-24 50,-26"/>
          <polygon points="-50,26 -43,22 -36,26"/>
          <polygon points="-36,26 -29,22 -22,26"/>
          <polygon points="-22,26 -15,22 -8,26"/>
          <polygon points="-8,26 -1,22 6,26"/>
          <polygon points="6,26 13,22 20,26"/>
          <polygon points="20,26 27,22 34,26"/>
          <polygon points="34,26 41,22 48,26"/>
          <polygon points="48,26 50,24 50,26"/>
        </g>
      </g>

      <rect x="-48" y="-18" width="96" height="36" fill="url(#chequer-small)" stroke="#2A2A1A" stroke-width="0.5"/>

      <g stroke="#1A1A0A" stroke-width="0.8" fill="none">
        <line x1="-48" y1="-14" x2="48" y2="-14"/>
        <line x1="-48" y1="-8" x2="48" y2="-8"/>
        <line x1="-48" y1="-2" x2="48" y2="-2"/>
        <line x1="-48" y1="4" x2="48" y2="4"/>
        <line x1="-48" y1="10" x2="48" y2="10"/>
        <line x1="-48" y1="16" x2="48" y2="16"/>
        <line x1="-40" y1="-18" x2="-40" y2="18"/>
        <line x1="-30" y1="-18" x2="-30" y2="18"/>
        <line x1="-20" y1="-18" x2="-20" y2="18"/>
        <line x1="-10" y1="-18" x2="-10" y2="18"/>
        <line x1="0" y1="-18" x2="0" y2="18"/>
        <line x1="10" y1="-18" x2="10" y2="18"/>
        <line x1="20" y1="-18" x2="20" y2="18"/>
        <line x1="30" y1="-18" x2="30" y2="18"/>
        <line x1="40" y1="-18" x2="40" y2="18"/>
      </g>

      <rect x="-10" y="-3" width="20" height="10" fill="#1A1A0A" stroke="#0A0A0A" stroke-width="0.4"/>
      <rect x="-9" y="-2" width="18" height="8" fill="#4A4A42"/>
      <circle cx="-5" cy="2" r="1" fill="#F5D800"/>
      <circle cx="0" cy="2" r="1" fill="#E8101C"/>
      <circle cx="5" cy="2" r="1" fill="#FFFFFF"/>

      <rect x="-14" y="18" width="28" height="8" fill="#4A4A3A" stroke="#1A1A0A" stroke-width="0.6"/>
      <rect x="-12" y="20" width="24" height="4" fill="#6A6A5C"/>
    </g>

    <g>
      <rect x="-80" y="60" width="5" height="12" fill="#F5D800"/>
      <rect x="-80" y="72" width="5" height="12" fill="#FFFFFF"/>
      <rect x="-80" y="84" width="5" height="12" fill="#F5D800"/>
      <rect x="-80" y="96" width="5" height="12" fill="#FFFFFF"/>
    </g>
    <g>
      <rect x="75" y="60" width="5" height="12" fill="#F5D800"/>
      <rect x="75" y="72" width="5" height="12" fill="#FFFFFF"/>
      <rect x="75" y="84" width="5" height="12" fill="#F5D800"/>
      <rect x="75" y="96" width="5" height="12" fill="#FFFFFF"/>
    </g>

    <g transform="translate(0, 146)">
      <rect x="-80" y="0" width="160" height="16" fill="#E8101C"/>
      <g fill="#F5D800">
        <polygon points="-78,16 -66,0 -54,0 -66,16"/>
        <polygon points="-54,16 -42,0 -30,0 -42,16"/>
        <polygon points="-30,16 -18,0 -6,0 -18,16"/>
        <polygon points="-6,16 6,0 18,0 6,16"/>
        <polygon points="18,16 30,0 42,0 30,16"/>
        <polygon points="42,16 54,0 66,0 54,16"/>
        <polygon points="66,16 78,0 78,6 72,16"/>
      </g>
    </g>

  </g>

</svg>
